<svg xmlns="http://www.w3.org/2000/svg" width="1200" viewBox="0 0 1200 525" height="525" version="1.0"><defs><clipPath id="a"><path d="M 1.140625 33 L 1192 33 L 1192 234 L 1.140625 234 Z M 1.140625 33"/></clipPath></defs><path fill="#5271FF" d="M 1184.238281 195.925781 C 1184.238281 212.292969 1169.992188 225.574219 1154.796875 225.574219 L 30.832031 225.574219 C 26.558594 225.574219 22.285156 224.625 18.488281 222.964844 C 23.472656 228.183594 30.355469 231.265625 43.542969 231.265625 L 1161.921875 231.265625 C 1176.875 231.265625 1189.222656 218.933594 1189.222656 203.988281 L 1189.222656 71.480469 C 1189.222656 64.601562 1186.609375 58.433594 1182.574219 53.691406 C 1183.761719 56.773438 1184.238281 60.09375 1184.238281 63.417969 L 1184.238281 195.925781"/><path fill="#38B6FF" d="M 30.832031 223.203125 L 1154.324219 223.203125 C 1169.28125 223.203125 1181.625 210.867188 1181.625 195.925781 L 1181.625 63.417969 C 1181.625 48.472656 1169.28125 36.140625 1154.324219 36.140625 L 30.832031 36.140625 C 15.875 36.140625 3.53125 48.472656 3.53125 63.417969 L 3.53125 195.925781 C 3.53125 211.105469 15.875 223.203125 30.832031 223.203125"/><g clip-path="url(#a)"><path fill="#004AAD" d="M 1179.488281 47.761719 C 1174.265625 39.460938 1165.007812 33.769531 1154.324219 33.769531 L 30.832031 33.769531 C 14.449219 33.769531 1.15625 47.050781 1.15625 63.417969 L 1.15625 195.925781 C 1.15625 205.648438 5.902344 214.1875 13.027344 219.644531 C 18.25 227.945312 27.507812 233.636719 44.652344 233.636719 L 1161.683594 233.636719 C 1178.0625 233.636719 1191.359375 220.355469 1191.359375 203.988281 L 1191.359375 71.480469 C 1191.359375 61.757812 1186.609375 53.21875 1179.488281 47.761719 M 3.53125 195.925781 L 3.53125 63.417969 C 3.53125 48.472656 15.875 36.140625 30.832031 36.140625 L 1154.324219 36.140625 C 1169.28125 36.140625 1181.625 48.472656 1181.625 63.417969 L 1181.625 195.925781 C 1181.625 210.867188 1169.28125 223.203125 1154.324219 223.203125 L 30.832031 223.203125 C 15.875 223.203125 3.53125 211.105469 3.53125 195.925781 M 1189.222656 203.988281 C 1189.222656 218.933594 1176.640625 231.265625 1161.683594 231.265625 L 44.652344 231.265625 C 30.59375 231.265625 23.710938 228.183594 18.722656 222.964844 C 22.523438 224.625 26.558594 225.574219 31.070312 225.574219 L 1154.558594 225.574219 C 1170.941406 225.574219 1184.238281 212.292969 1184.238281 195.925781 L 1184.238281 63.417969 C 1184.238281 60.09375 1183.523438 56.773438 1182.574219 53.691406 C 1186.609375 58.433594 1189.222656 64.601562 1189.222656 71.480469 L 1189.222656 203.988281"/></g><path fill="#DD2C00" d="M 1169.804688 448.148438 L 1096.457031 448.148438 L 1054.4375 500.515625 L 985.304688 340.171875 L 1120.007812 340.171875 Z M 1169.804688 448.148438"/><path fill="#FF3D00" d="M 1042.125 340.171875 L 971.910156 500.515625 L 929.890625 448.148438 L 856.542969 448.148438 L 906.34375 340.171875 Z M 1042.125 340.171875"/><path fill="#FFA000" d="M 1184.117188 227.832031 C 1178.207031 217.109375 1178.207031 204.097656 1184.117188 193.375 L 1186.949219 188.238281 C 1196.183594 171.445312 1190.542969 150.347656 1174.125 140.425781 L 1169.101562 137.378906 C 1158.625 131.03125 1152.121094 119.777344 1151.863281 107.546875 L 1151.734375 101.671875 C 1151.34375 82.503906 1135.898438 67.066406 1116.722656 66.675781 L 1110.847656 66.546875 C 1098.597656 66.296875 1087.332031 59.785156 1081 49.3125 L 1077.953125 44.292969 C 1068.027344 27.890625 1046.921875 22.242188 1030.125 31.476562 L 1024.980469 34.304688 C 1014.253906 40.210938 1001.238281 40.210938 990.511719 34.304688 L 985.382812 31.484375 C 968.582031 22.253906 947.488281 27.902344 937.558594 44.304688 L 934.515625 49.324219 C 928.164062 59.796875 916.90625 66.296875 904.667969 66.558594 L 898.792969 66.6875 C 879.617188 67.074219 864.171875 82.515625 863.78125 101.683594 L 863.652344 107.554688 C 863.402344 119.800781 856.890625 131.0625 846.414062 137.390625 L 841.390625 140.433594 C 824.992188 150.359375 819.332031 171.457031 828.566406 188.246094 L 831.398438 193.386719 C 837.304688 204.109375 837.304688 217.121094 831.398438 227.84375 L 828.578125 232.972656 C 819.34375 249.761719 824.980469 270.859375 841.398438 280.785156 L 846.421875 283.828125 C 856.902344 290.179688 863.402344 301.429688 863.664062 313.664062 L 863.792969 319.535156 C 864.183594 338.703125 879.628906 354.144531 898.800781 354.53125 L 904.679688 354.660156 C 916.929688 354.910156 928.195312 361.421875 934.523438 371.894531 L 937.570312 376.914062 C 947.5 393.308594 968.605469 398.964844 985.402344 389.734375 L 990.542969 386.902344 C 1001.269531 380.996094 1014.289062 380.996094 1025.015625 386.902344 L 1030.15625 389.734375 C 1046.953125 398.964844 1068.058594 393.328125 1077.988281 376.914062 L 1081.035156 371.894531 C 1087.386719 361.421875 1098.640625 354.921875 1110.878906 354.660156 L 1116.753906 354.53125 C 1135.929688 354.144531 1151.375 338.703125 1151.765625 319.535156 L 1151.894531 313.664062 C 1152.144531 301.417969 1158.65625 290.15625 1169.136719 283.828125 L 1174.15625 280.785156 C 1190.554688 270.859375 1196.214844 249.761719 1186.980469 232.972656 Z M 1184.117188 227.832031"/><path fill="#FFB300" d="M 1007.761719 81.027344 C 1005.640625 81.027344 1003.519531 81.078125 1001.402344 81.183594 C 999.285156 81.285156 997.167969 81.441406 995.058594 81.648438 C 992.945312 81.859375 990.839844 82.117188 988.742188 82.429688 C 986.644531 82.738281 984.554688 83.101562 982.472656 83.515625 C 980.394531 83.929688 978.324219 84.394531 976.265625 84.910156 C 974.207031 85.425781 972.164062 85.988281 970.136719 86.605469 C 968.105469 87.222656 966.089844 87.886719 964.09375 88.601562 C 962.097656 89.316406 960.117188 90.078125 958.15625 90.890625 C 956.199219 91.699219 954.257812 92.558594 952.339844 93.464844 C 950.421875 94.371094 948.527344 95.324219 946.660156 96.324219 C 944.789062 97.324219 942.941406 98.371094 941.121094 99.460938 C 939.304688 100.550781 937.511719 101.683594 935.746094 102.863281 C 933.984375 104.042969 932.25 105.261719 930.546875 106.523438 C 928.839844 107.789062 927.167969 109.09375 925.53125 110.4375 C 923.890625 111.78125 922.285156 113.167969 920.710938 114.589844 C 919.140625 116.015625 917.605469 117.476562 916.105469 118.976562 C 914.605469 120.476562 913.140625 122.011719 911.71875 123.582031 C 910.292969 125.152344 908.90625 126.757812 907.5625 128.398438 C 906.214844 130.039062 904.910156 131.710938 903.648438 133.414062 C 902.382812 135.117188 901.164062 136.847656 899.984375 138.613281 C 898.804688 140.375 897.671875 142.167969 896.578125 143.984375 C 895.488281 145.804688 894.445312 147.648438 893.445312 149.519531 C 892.445312 151.386719 891.492188 153.28125 890.582031 155.199219 C 889.675781 157.117188 888.816406 159.054688 888.003906 161.011719 C 887.195312 162.972656 886.429688 164.949219 885.714844 166.945312 C 885 168.945312 884.335938 170.957031 883.71875 172.984375 C 883.105469 175.015625 882.539062 177.058594 882.023438 179.113281 C 881.507812 181.171875 881.042969 183.242188 880.628906 185.320312 C 880.214844 187.398438 879.851562 189.488281 879.542969 191.585938 C 879.230469 193.683594 878.96875 195.789062 878.761719 197.898438 C 878.554688 200.007812 878.398438 202.121094 878.292969 204.242188 C 878.191406 206.359375 878.136719 208.476562 878.136719 210.597656 C 878.136719 212.71875 878.191406 214.839844 878.292969 216.957031 C 878.398438 219.074219 878.554688 221.1875 878.761719 223.300781 C 878.96875 225.410156 879.230469 227.511719 879.542969 229.609375 C 879.851562 231.707031 880.214844 233.796875 880.628906 235.878906 C 881.042969 237.957031 881.507812 240.023438 882.023438 242.082031 C 882.539062 244.140625 883.105469 246.183594 883.71875 248.210938 C 884.335938 250.242188 885 252.253906 885.714844 254.25 C 886.429688 256.246094 887.195312 258.226562 888.003906 260.183594 C 888.816406 262.144531 889.675781 264.082031 890.582031 265.996094 C 891.492188 267.914062 892.445312 269.808594 893.445312 271.679688 C 894.445312 273.550781 895.488281 275.394531 896.578125 277.210938 C 897.671875 279.03125 898.804688 280.820312 899.984375 282.585938 C 901.164062 284.347656 902.382812 286.082031 903.648438 287.785156 C 904.910156 289.488281 906.214844 291.160156 907.5625 292.796875 C 908.90625 294.4375 910.292969 296.042969 911.71875 297.613281 C 913.140625 299.183594 914.605469 300.722656 916.105469 302.21875 C 917.605469 303.71875 919.140625 305.179688 920.710938 306.605469 C 922.285156 308.03125 923.890625 309.414062 925.53125 310.757812 C 927.167969 312.105469 928.839844 313.410156 930.546875 314.671875 C 932.25 315.933594 933.984375 317.15625 935.746094 318.335938 C 937.511719 319.511719 939.304688 320.648438 941.121094 321.738281 C 942.941406 322.828125 944.789062 323.871094 946.660156 324.871094 C 948.527344 325.871094 950.421875 326.824219 952.339844 327.730469 C 954.257812 328.636719 956.199219 329.496094 958.15625 330.308594 C 960.117188 331.121094 962.097656 331.882812 964.09375 332.597656 C 966.089844 333.3125 968.105469 333.976562 970.136719 334.59375 C 972.164062 335.207031 974.207031 335.773438 976.265625 336.289062 C 978.324219 336.804688 980.394531 337.269531 982.472656 337.679688 C 984.554688 338.09375 986.644531 338.457031 988.742188 338.769531 C 990.839844 339.078125 992.945312 339.339844 995.058594 339.546875 C 997.167969 339.753906 999.285156 339.910156 1001.402344 340.015625 C 1003.519531 340.121094 1005.640625 340.171875 1007.761719 340.171875 C 1009.882812 340.171875 1012.003906 340.121094 1014.125 340.015625 C 1016.242188 339.910156 1018.355469 339.753906 1020.46875 339.546875 C 1022.578125 339.339844 1024.683594 339.078125 1026.78125 338.769531 C 1028.882812 338.457031 1030.972656 338.09375 1033.050781 337.679688 C 1035.132812 337.269531 1037.203125 336.804688 1039.257812 336.289062 C 1041.316406 335.773438 1043.359375 335.207031 1045.390625 334.59375 C 1047.421875 333.976562 1049.433594 333.3125 1051.433594 332.597656 C 1053.429688 331.882812 1055.410156 331.121094 1057.367188 330.308594 C 1059.328125 329.496094 1061.265625 328.636719 1063.183594 327.730469 C 1065.101562 326.824219 1066.996094 325.871094 1068.867188 324.871094 C 1070.738281 323.871094 1072.582031 322.828125 1074.402344 321.738281 C 1076.222656 320.648438 1078.015625 319.511719 1079.777344 318.335938 C 1081.542969 317.15625 1083.277344 315.933594 1084.980469 314.671875 C 1086.683594 313.410156 1088.355469 312.105469 1089.996094 310.757812 C 1091.636719 309.414062 1093.242188 308.03125 1094.8125 306.605469 C 1096.386719 305.179688 1097.921875 303.71875 1099.421875 302.21875 C 1100.921875 300.722656 1102.382812 299.183594 1103.808594 297.613281 C 1105.234375 296.042969 1106.617188 294.4375 1107.964844 292.796875 C 1109.308594 291.160156 1110.613281 289.488281 1111.878906 287.785156 C 1113.140625 286.082031 1114.363281 284.347656 1115.542969 282.585938 C 1116.71875 280.820312 1117.855469 279.03125 1118.945312 277.210938 C 1120.035156 275.394531 1121.082031 273.550781 1122.082031 271.679688 C 1123.082031 269.808594 1124.035156 267.914062 1124.941406 266 C 1125.847656 264.082031 1126.707031 262.144531 1127.519531 260.183594 C 1128.332031 258.226562 1129.097656 256.246094 1129.808594 254.25 C 1130.523438 252.253906 1131.191406 250.242188 1131.804688 248.210938 C 1132.421875 246.183594 1132.988281 244.140625 1133.503906 242.082031 C 1134.019531 240.023438 1134.484375 237.957031 1134.898438 235.878906 C 1135.3125 233.796875 1135.671875 231.707031 1135.984375 229.609375 C 1136.296875 227.511719 1136.554688 225.410156 1136.761719 223.300781 C 1136.972656 221.1875 1137.128906 219.074219 1137.230469 216.957031 C 1137.335938 214.839844 1137.386719 212.71875 1137.386719 210.597656 C 1137.386719 208.476562 1137.335938 206.359375 1137.230469 204.242188 C 1137.128906 202.121094 1136.972656 200.007812 1136.761719 197.898438 C 1136.554688 195.789062 1136.296875 193.683594 1135.984375 191.585938 C 1135.671875 189.488281 1135.3125 187.398438 1134.898438 185.320312 C 1134.484375 183.242188 1134.019531 181.171875 1133.503906 179.113281 C 1132.988281 177.058594 1132.421875 175.015625 1131.804688 172.984375 C 1131.191406 170.957031 1130.523438 168.945312 1129.808594 166.945312 C 1129.097656 164.949219 1128.332031 162.972656 1127.519531 161.011719 C 1126.707031 159.054688 1125.847656 157.117188 1124.941406 155.199219 C 1124.035156 153.28125 1123.082031 151.390625 1122.082031 149.519531 C 1121.082031 147.648438 1120.035156 145.804688 1118.945312 143.984375 C 1117.855469 142.167969 1116.71875 140.375 1115.542969 138.613281 C 1114.363281 136.847656 1113.140625 135.117188 1111.878906 133.414062 C 1110.613281 131.710938 1109.308594 130.039062 1107.964844 128.398438 C 1106.617188 126.757812 1105.234375 125.152344 1103.808594 123.582031 C 1102.382812 122.011719 1100.921875 120.476562 1099.421875 118.976562 C 1097.921875 117.476562 1096.386719 116.015625 1094.8125 114.589844 C 1093.242188 113.167969 1091.636719 111.78125 1089.996094 110.4375 C 1088.355469 109.09375 1086.683594 107.789062 1084.980469 106.523438 C 1083.277344 105.261719 1081.542969 104.042969 1079.777344 102.863281 C 1078.015625 101.683594 1076.222656 100.550781 1074.402344 99.460938 C 1072.582031 98.371094 1070.738281 97.324219 1068.867188 96.324219 C 1066.996094 95.324219 1065.101562 94.371094 1063.183594 93.464844 C 1061.265625 92.558594 1059.328125 91.699219 1057.367188 90.890625 C 1055.410156 90.078125 1053.429688 89.316406 1051.433594 88.601562 C 1049.433594 87.886719 1047.421875 87.222656 1045.390625 86.605469 C 1043.359375 85.988281 1041.316406 85.425781 1039.257812 84.910156 C 1037.203125 84.394531 1035.132812 83.929688 1033.050781 83.515625 C 1030.972656 83.101562 1028.882812 82.738281 1026.78125 82.429688 C 1024.683594 82.117188 1022.578125 81.859375 1020.46875 81.648438 C 1018.355469 81.441406 1016.242188 81.285156 1014.125 81.183594 C 1012.003906 81.078125 1009.882812 81.027344 1007.761719 81.027344 Z M 1007.761719 81.027344"/><path fill="#FFCA28" d="M 1007.773438 350.980469 C 930.34375 350.980469 867.347656 288.007812 867.347656 210.609375 C 867.347656 133.210938 930.332031 70.226562 1007.773438 70.226562 C 1085.214844 70.226562 1148.199219 133.199219 1148.199219 210.597656 C 1148.199219 287.996094 1085.203125 350.980469 1007.773438 350.980469 Z M 1007.773438 91.824219 C 942.25 91.824219 888.949219 145.109375 888.949219 210.597656 C 888.949219 276.085938 942.257812 329.375 1007.773438 329.375 C 1073.289062 329.375 1126.597656 276.085938 1126.597656 210.597656 C 1126.597656 145.109375 1073.289062 91.824219 1007.773438 91.824219 Z M 1007.773438 91.824219"/><path fill="#FFECB3" d="M 994.464844 275.449219 L 943.578125 226.472656 L 958.546875 210.921875 L 993.472656 244.523438 L 1072.933594 157.636719 L 1088.875 172.210938 Z M 994.464844 275.449219"/><g fill="#FFF"><g><g><path d="M 31.457031 -22.742188 L 26.054688 -22.742188 C 25.011719 -22.742188 24.105469 -23.058594 23.378906 -23.785156 L 23.195312 -23.96875 C 22.925781 -24.105469 22.695312 -24.105469 22.425781 -24.011719 C 22.152344 -23.878906 22.0625 -23.648438 22.0625 -23.378906 L 22.0625 -13.300781 C 22.0625 -13.027344 22.152344 -12.800781 22.425781 -12.664062 C 22.695312 -12.527344 22.925781 -12.527344 23.195312 -12.710938 L 23.695312 -13.210938 C 24.058594 -13.574219 24.511719 -13.753906 25.058594 -13.753906 C 25.101562 -13.753906 25.148438 -13.707031 25.148438 -13.617188 L 25.148438 -10.078125 C 25.148438 -9.757812 25.011719 -9.488281 24.832031 -9.304688 C 24.648438 -9.078125 24.375 -8.988281 24.058594 -8.988281 C 21.609375 -8.988281 19.566406 -9.441406 17.976562 -10.394531 C 16.386719 -11.304688 15.117188 -12.484375 14.207031 -13.890625 C 13.300781 -15.253906 12.621094 -16.75 12.257812 -18.292969 C 11.894531 -19.835938 11.710938 -21.289062 11.710938 -22.5625 C 11.710938 -24.375 11.984375 -26.101562 12.527344 -27.734375 C 13.074219 -29.371094 13.890625 -30.824219 14.890625 -32.09375 C 17.066406 -34.726562 20.15625 -36.089844 24.058594 -36.089844 L 28.597656 -36.089844 C 29.597656 -36.089844 30.503906 -35.726562 31.277344 -35.089844 C 31.457031 -34.863281 31.683594 -34.816406 31.957031 -34.90625 C 32.230469 -35 32.367188 -35.226562 32.367188 -35.542969 L 32.367188 -45.710938 C 32.367188 -45.984375 32.230469 -46.210938 32.003906 -46.347656 C 31.730469 -46.4375 31.503906 -46.4375 31.277344 -46.300781 L 31.09375 -46.121094 C 30.324219 -45.4375 29.414062 -45.121094 28.417969 -45.121094 L 24.058594 -45.121094 C 20.746094 -45.121094 17.75 -44.484375 15.023438 -43.261719 C 12.300781 -41.988281 9.988281 -40.171875 7.988281 -37.8125 C 6.265625 -35.769531 4.949219 -33.457031 4.039062 -30.824219 C 3.132812 -28.191406 2.722656 -25.464844 2.722656 -22.5625 C 2.722656 -19.746094 3.175781 -16.976562 4.085938 -14.300781 C 4.992188 -11.574219 6.308594 -9.167969 8.125 -7.082031 C 9.941406 -4.949219 12.164062 -3.222656 14.796875 -1.953125 C 17.429688 -0.636719 20.519531 0 24.058594 0 L 31.457031 0 C 32.183594 0 32.820312 -0.226562 33.363281 -0.773438 C 33.863281 -1.269531 34.136719 -1.90625 34.136719 -2.679688 L 34.136719 -20.0625 C 34.136719 -20.789062 33.863281 -21.378906 33.363281 -21.925781 C 32.820312 -22.46875 32.183594 -22.742188 31.457031 -22.742188 Z M 31.457031 -22.742188" transform="translate(35.09 153.304)"/></g></g></g><g fill="#FFF"><g><g><path d="M 33.046875 -45.4375 C 32.273438 -44.714844 31.367188 -44.394531 30.367188 -44.394531 L 6.171875 -44.394531 C 5.855469 -44.394531 5.628906 -44.257812 5.539062 -43.988281 C 5.402344 -43.714844 5.402344 -43.488281 5.582031 -43.261719 L 5.71875 -43.125 C 6.445312 -42.308594 6.808594 -41.355469 6.808594 -40.265625 L 6.808594 -3.40625 C 6.808594 -2.859375 6.71875 -2.359375 6.535156 -1.859375 C 6.355469 -1.363281 6.082031 -0.90625 5.71875 -0.542969 L 5.582031 -0.410156 C 5.402344 -0.136719 5.402344 0.0898438 5.539062 0.363281 C 5.628906 0.636719 5.855469 0.726562 6.171875 0.726562 L 30.367188 0.726562 C 31.367188 0.726562 32.273438 1.089844 33.046875 1.769531 C 33.273438 1.996094 33.546875 2.042969 33.820312 1.90625 C 34.089844 1.816406 34.273438 1.589844 34.273438 1.226562 L 34.273438 -8.898438 C 34.273438 -9.167969 34.136719 -9.398438 33.863281 -9.53125 C 33.589844 -9.625 33.320312 -9.578125 33.136719 -9.398438 C 32.320312 -8.625 31.367188 -8.261719 30.277344 -8.261719 L 16.933594 -8.261719 C 16.613281 -8.261719 16.339844 -8.351562 16.113281 -8.578125 C 15.886719 -8.761719 15.796875 -9.035156 15.796875 -9.398438 L 15.796875 -16.207031 C 15.796875 -16.523438 15.886719 -16.796875 16.113281 -17.023438 C 16.339844 -17.203125 16.613281 -17.339844 16.933594 -17.339844 L 20.925781 -17.339844 C 22.015625 -17.339844 22.96875 -16.933594 23.785156 -16.207031 C 24.011719 -16.023438 24.242188 -16.023438 24.511719 -16.160156 C 24.785156 -16.296875 24.921875 -16.523438 24.921875 -16.796875 L 24.921875 -26.875 C 24.921875 -27.144531 24.785156 -27.328125 24.511719 -27.464844 C 24.242188 -27.597656 24.011719 -27.597656 23.785156 -27.464844 C 22.96875 -26.691406 22.015625 -26.328125 20.925781 -26.328125 L 16.933594 -26.328125 C 16.613281 -26.328125 16.339844 -26.417969 16.113281 -26.644531 C 15.886719 -26.828125 15.796875 -27.101562 15.796875 -27.464844 L 15.796875 -34.273438 C 15.796875 -34.589844 15.886719 -34.863281 16.113281 -35.089844 C 16.339844 -35.269531 16.613281 -35.40625 16.933594 -35.40625 L 30.277344 -35.40625 C 31.367188 -35.40625 32.320312 -35 33.136719 -34.273438 C 33.320312 -34.046875 33.589844 -34 33.863281 -34.136719 C 34.136719 -34.226562 34.273438 -34.453125 34.273438 -34.773438 L 34.273438 -44.941406 C 34.273438 -45.210938 34.089844 -45.4375 33.820312 -45.574219 C 33.546875 -45.667969 33.273438 -45.621094 33.046875 -45.4375 Z M 33.046875 -45.4375" transform="translate(74.716 153.304)"/></g></g></g><g fill="#FFF"><g><g><path d="M 42.308594 -1.136719 L 42.261719 -1.179688 C 41.535156 -1.90625 41.21875 -2.8125 41.21875 -3.902344 L 41.21875 -41.21875 C 41.21875 -42.261719 41.535156 -43.167969 42.261719 -43.941406 L 42.308594 -43.988281 C 42.441406 -44.214844 42.441406 -44.441406 42.351562 -44.714844 C 42.214844 -44.984375 41.988281 -45.121094 41.71875 -45.121094 L 31.683594 -45.121094 C 31.367188 -45.121094 31.140625 -44.984375 31.050781 -44.714844 C 30.914062 -44.441406 30.914062 -44.214844 31.09375 -43.988281 L 31.140625 -43.941406 C 31.820312 -43.167969 32.183594 -42.261719 32.183594 -41.21875 L 32.183594 -18.65625 C 32.183594 -18.476562 32.09375 -18.339844 31.910156 -18.292969 C 31.730469 -18.25 31.59375 -18.292969 31.503906 -18.476562 L 17.296875 -42.351562 C 16.933594 -42.898438 17.023438 -43.441406 17.476562 -43.988281 C 17.613281 -44.214844 17.613281 -44.441406 17.523438 -44.714844 C 17.386719 -44.984375 17.160156 -45.121094 16.886719 -45.121094 L 15.660156 -45.121094 L 15.660156 -45.074219 L 15.660156 -45.121094 L 6.171875 -45.121094 C 5.855469 -45.121094 5.628906 -44.984375 5.539062 -44.714844 C 5.402344 -44.441406 5.402344 -44.214844 5.582031 -43.988281 C 6.308594 -43.167969 6.671875 -42.261719 6.671875 -41.261719 L 6.671875 -3.859375 C 6.671875 -2.8125 6.308594 -1.90625 5.582031 -1.136719 C 5.402344 -0.863281 5.402344 -0.636719 5.539062 -0.363281 C 5.628906 -0.0898438 5.855469 0 6.171875 0 L 16.207031 0 C 16.476562 0 16.703125 -0.0898438 16.839844 -0.363281 C 16.933594 -0.636719 16.933594 -0.863281 16.796875 -1.136719 L 16.703125 -1.226562 C 15.980469 -1.953125 15.660156 -2.859375 15.660156 -3.949219 L 15.660156 -26.464844 C 15.660156 -26.644531 15.707031 -26.738281 15.886719 -26.78125 C 16.070312 -26.828125 16.207031 -26.78125 16.339844 -26.644531 L 30.59375 -2.722656 C 30.867188 -2.132812 30.824219 -1.589844 30.414062 -1.136719 C 30.230469 -0.863281 30.230469 -0.636719 30.367188 -0.363281 C 30.460938 -0.0898438 30.6875 0 31.003906 0 L 41.71875 0 C 41.988281 0 42.214844 -0.0898438 42.351562 -0.363281 C 42.441406 -0.636719 42.441406 -0.863281 42.308594 -1.136719 Z M 42.308594 -1.136719" transform="translate(114.434 153.304)"/></g></g></g><g fill="#FFF"><g><g><path d="M 33.046875 -45.4375 C 32.273438 -44.714844 31.367188 -44.394531 30.367188 -44.394531 L 6.171875 -44.394531 C 5.855469 -44.394531 5.628906 -44.257812 5.539062 -43.988281 C 5.402344 -43.714844 5.402344 -43.488281 5.582031 -43.261719 L 5.71875 -43.125 C 6.445312 -42.308594 6.808594 -41.355469 6.808594 -40.265625 L 6.808594 -3.40625 C 6.808594 -2.859375 6.71875 -2.359375 6.535156 -1.859375 C 6.355469 -1.363281 6.082031 -0.90625 5.71875 -0.542969 L 5.582031 -0.410156 C 5.402344 -0.136719 5.402344 0.0898438 5.539062 0.363281 C 5.628906 0.636719 5.855469 0.726562 6.171875 0.726562 L 30.367188 0.726562 C 31.367188 0.726562 32.273438 1.089844 33.046875 1.769531 C 33.273438 1.996094 33.546875 2.042969 33.820312 1.90625 C 34.089844 1.816406 34.273438 1.589844 34.273438 1.226562 L 34.273438 -8.898438 C 34.273438 -9.167969 34.136719 -9.398438 33.863281 -9.53125 C 33.589844 -9.625 33.320312 -9.578125 33.136719 -9.398438 C 32.320312 -8.625 31.367188 -8.261719 30.277344 -8.261719 L 16.933594 -8.261719 C 16.613281 -8.261719 16.339844 -8.351562 16.113281 -8.578125 C 15.886719 -8.761719 15.796875 -9.035156 15.796875 -9.398438 L 15.796875 -16.207031 C 15.796875 -16.523438 15.886719 -16.796875 16.113281 -17.023438 C 16.339844 -17.203125 16.613281 -17.339844 16.933594 -17.339844 L 20.925781 -17.339844 C 22.015625 -17.339844 22.96875 -16.933594 23.785156 -16.207031 C 24.011719 -16.023438 24.242188 -16.023438 24.511719 -16.160156 C 24.785156 -16.296875 24.921875 -16.523438 24.921875 -16.796875 L 24.921875 -26.875 C 24.921875 -27.144531 24.785156 -27.328125 24.511719 -27.464844 C 24.242188 -27.597656 24.011719 -27.597656 23.785156 -27.464844 C 22.96875 -26.691406 22.015625 -26.328125 20.925781 -26.328125 L 16.933594 -26.328125 C 16.613281 -26.328125 16.339844 -26.417969 16.113281 -26.644531 C 15.886719 -26.828125 15.796875 -27.101562 15.796875 -27.464844 L 15.796875 -34.273438 C 15.796875 -34.589844 15.886719 -34.863281 16.113281 -35.089844 C 16.339844 -35.269531 16.613281 -35.40625 16.933594 -35.40625 L 30.277344 -35.40625 C 31.367188 -35.40625 32.320312 -35 33.136719 -34.273438 C 33.320312 -34.046875 33.589844 -34 33.863281 -34.136719 C 34.136719 -34.226562 34.273438 -34.453125 34.273438 -34.773438 L 34.273438 -44.941406 C 34.273438 -45.210938 34.089844 -45.4375 33.820312 -45.574219 C 33.546875 -45.667969 33.273438 -45.621094 33.046875 -45.4375 Z M 33.046875 -45.4375" transform="translate(162.322 153.304)"/></g></g></g><g fill="#FFF"><g><g><path d="M 37.132812 -1.136719 L 36.453125 -1.679688 C 35.726562 -2.269531 35.089844 -2.996094 34.589844 -3.8125 L 28.960938 -12.800781 C 28.78125 -13.074219 28.6875 -13.390625 28.78125 -13.753906 C 28.871094 -14.070312 29.050781 -14.34375 29.371094 -14.570312 C 30.503906 -15.386719 31.503906 -16.296875 32.320312 -17.339844 C 33.546875 -18.839844 34.5 -20.5625 35.136719 -22.46875 C 35.769531 -24.375 36.132812 -26.375 36.132812 -28.460938 C 36.132812 -30.550781 35.769531 -32.59375 35.136719 -34.5 C 34.5 -36.40625 33.546875 -38.128906 32.320312 -39.675781 C 30.867188 -41.398438 29.097656 -42.761719 27.101562 -43.714844 C 25.058594 -44.621094 22.832031 -45.121094 20.472656 -45.121094 L 6.128906 -45.121094 C 5.808594 -45.121094 5.582031 -44.984375 5.492188 -44.714844 C 5.355469 -44.441406 5.402344 -44.214844 5.628906 -43.988281 C 6.355469 -43.167969 6.765625 -42.214844 6.765625 -41.125 L 6.765625 -3.902344 C 6.765625 -2.859375 6.402344 -1.953125 5.71875 -1.179688 C 5.445312 -0.90625 5.402344 -0.679688 5.539062 -0.410156 C 5.628906 -0.136719 5.855469 0 6.21875 0 L 16.386719 0 C 16.660156 0 16.886719 -0.0898438 16.976562 -0.363281 C 17.066406 -0.636719 17.066406 -0.863281 16.886719 -1.136719 C 16.113281 -1.953125 15.75 -2.859375 15.75 -3.949219 L 15.75 -10.578125 C 15.75 -10.941406 15.84375 -11.257812 16.113281 -11.53125 C 16.386719 -11.800781 16.703125 -11.9375 17.066406 -11.9375 L 18.15625 -11.9375 C 18.613281 -11.9375 19.019531 -11.710938 19.292969 -11.304688 L 24.875 -2.316406 C 25.101562 -1.90625 25.058594 -1.542969 24.785156 -1.179688 L 24.738281 -1.136719 C 24.558594 -0.863281 24.558594 -0.636719 24.695312 -0.363281 C 24.785156 -0.0898438 25.011719 0 25.328125 0 L 36.8125 0 C 37.132812 0 37.3125 -0.136719 37.40625 -0.410156 C 37.496094 -0.679688 37.40625 -0.90625 37.132812 -1.136719 Z M 25.375 -23.058594 C 24.242188 -21.609375 22.605469 -20.925781 20.472656 -20.925781 L 17.066406 -20.925781 C 16.703125 -20.925781 16.386719 -21.015625 16.113281 -21.289062 C 15.84375 -21.5625 15.75 -21.878906 15.75 -22.242188 L 15.75 -34.773438 C 15.75 -35.136719 15.84375 -35.453125 16.113281 -35.726562 C 16.386719 -35.996094 16.703125 -36.132812 17.066406 -36.132812 L 20.472656 -36.132812 C 22.105469 -36.132812 23.332031 -35.769531 24.242188 -35.042969 C 25.148438 -34.316406 25.785156 -33.5 26.238281 -32.59375 C 26.644531 -31.683594 26.917969 -30.824219 27.007812 -30.003906 C 27.101562 -29.1875 27.144531 -28.644531 27.144531 -28.460938 C 27.144531 -27.371094 26.964844 -26.375 26.691406 -25.464844 C 26.375 -24.558594 25.917969 -23.742188 25.375 -23.058594 Z M 25.375 -23.058594" transform="translate(202.04 153.304)"/></g></g></g><g fill="#FFF"><g><g><path d="M 41.308594 -0.816406 C 41.308594 -1 41.21875 -1.136719 41.082031 -1.226562 C 40.039062 -2.089844 39.355469 -3.175781 38.992188 -4.539062 L 28.144531 -42.035156 C 27.917969 -42.761719 28.054688 -43.441406 28.597656 -43.988281 C 28.734375 -44.214844 28.734375 -44.441406 28.644531 -44.714844 C 28.507812 -44.984375 28.28125 -45.121094 28.007812 -45.121094 L 16.023438 -45.121094 C 15.75 -45.121094 15.523438 -44.984375 15.386719 -44.714844 C 15.253906 -44.441406 15.253906 -44.214844 15.433594 -43.988281 C 15.980469 -43.441406 16.113281 -42.761719 15.886719 -42.035156 L 5.085938 -4.492188 C 4.722656 -3.222656 3.996094 -2.132812 2.949219 -1.226562 C 2.8125 -1.089844 2.722656 -0.953125 2.722656 -0.816406 C 2.679688 -0.589844 2.722656 -0.410156 2.859375 -0.226562 C 2.996094 -0.046875 3.175781 0 3.449219 0 L 13.980469 0 C 14.253906 0 14.480469 -0.0898438 14.570312 -0.363281 C 14.664062 -0.636719 14.664062 -0.863281 14.480469 -1.089844 C 13.9375 -1.632812 13.800781 -2.316406 13.980469 -3.042969 L 15.386719 -7.761719 C 15.523438 -8.261719 15.796875 -8.671875 16.207031 -8.941406 C 16.570312 -9.214844 17.023438 -9.398438 17.566406 -9.398438 L 26.511719 -9.398438 C 27.007812 -9.398438 27.464844 -9.214844 27.871094 -8.941406 C 28.234375 -8.671875 28.507812 -8.261719 28.6875 -7.761719 L 30.050781 -3.042969 C 30.230469 -2.316406 30.050781 -1.679688 29.597656 -1.136719 L 29.597656 -1.089844 C 29.414062 -0.816406 29.414062 -0.589844 29.550781 -0.363281 C 29.640625 -0.0898438 29.867188 0 30.1875 0 L 40.628906 0 C 40.855469 0 41.035156 -0.046875 41.171875 -0.226562 C 41.308594 -0.410156 41.355469 -0.589844 41.308594 -0.816406 Z M 24.964844 -18.382812 L 19.109375 -18.382812 C 18.929688 -18.382812 18.792969 -18.429688 18.703125 -18.566406 C 18.566406 -18.703125 18.519531 -18.882812 18.613281 -19.066406 L 21.5625 -29.1875 C 21.609375 -29.414062 21.742188 -29.550781 22.015625 -29.550781 C 22.289062 -29.550781 22.425781 -29.414062 22.515625 -29.1875 L 25.421875 -19.066406 C 25.464844 -18.882812 25.421875 -18.703125 25.328125 -18.566406 C 25.238281 -18.429688 25.101562 -18.382812 24.964844 -18.382812 Z M 24.964844 -18.382812" transform="translate(244.935 153.304)"/></g></g></g><g fill="#FFF"><g><g><path d="M 35.542969 -46.257812 L 35.496094 -46.210938 C 34.679688 -45.484375 33.773438 -45.121094 32.730469 -45.121094 L 9.398438 -45.121094 C 8.308594 -45.121094 7.398438 -45.484375 6.582031 -46.210938 L 6.582031 -46.257812 C 6.308594 -46.390625 6.082031 -46.390625 5.808594 -46.257812 C 5.539062 -46.121094 5.445312 -45.9375 5.445312 -45.667969 L 5.445312 -35.589844 C 5.445312 -35.269531 5.539062 -35.042969 5.808594 -34.953125 C 6.082031 -34.816406 6.308594 -34.816406 6.582031 -35 C 7.398438 -35.726562 8.308594 -36.132812 9.398438 -36.132812 L 15.660156 -36.132812 C 15.886719 -36.132812 16.113281 -36.042969 16.296875 -35.859375 C 16.476562 -35.679688 16.570312 -35.453125 16.570312 -35.226562 L 16.570312 -3.996094 C 16.570312 -2.90625 16.207031 -1.953125 15.480469 -1.179688 L 15.433594 -1.136719 C 15.253906 -0.863281 15.253906 -0.636719 15.386719 -0.363281 C 15.480469 -0.0898438 15.707031 0 16.023438 0 L 26.101562 0 C 26.375 0 26.554688 -0.0898438 26.691406 -0.363281 C 26.828125 -0.636719 26.828125 -0.863281 26.691406 -1.136719 C 25.917969 -1.953125 25.558594 -2.859375 25.558594 -3.949219 L 25.558594 -35.226562 C 25.558594 -35.453125 25.648438 -35.679688 25.828125 -35.859375 C 26.011719 -36.042969 26.191406 -36.132812 26.464844 -36.132812 L 32.730469 -36.132812 C 33.820312 -36.132812 34.726562 -35.726562 35.496094 -35 L 35.542969 -35 C 35.769531 -34.816406 35.996094 -34.816406 36.269531 -34.953125 C 36.542969 -35.042969 36.679688 -35.269531 36.679688 -35.589844 L 36.679688 -45.667969 C 36.679688 -45.9375 36.542969 -46.121094 36.269531 -46.257812 C 35.996094 -46.390625 35.769531 -46.390625 35.542969 -46.257812 Z M 35.542969 -46.257812" transform="translate(289.01 153.304)"/></g></g></g><g fill="#FFF"><g><g><path d="M 33.046875 -45.4375 C 32.273438 -44.714844 31.367188 -44.394531 30.367188 -44.394531 L 6.171875 -44.394531 C 5.855469 -44.394531 5.628906 -44.257812 5.539062 -43.988281 C 5.402344 -43.714844 5.402344 -43.488281 5.582031 -43.261719 L 5.71875 -43.125 C 6.445312 -42.308594 6.808594 -41.355469 6.808594 -40.265625 L 6.808594 -3.40625 C 6.808594 -2.859375 6.71875 -2.359375 6.535156 -1.859375 C 6.355469 -1.363281 6.082031 -0.90625 5.71875 -0.542969 L 5.582031 -0.410156 C 5.402344 -0.136719 5.402344 0.0898438 5.539062 0.363281 C 5.628906 0.636719 5.855469 0.726562 6.171875 0.726562 L 30.367188 0.726562 C 31.367188 0.726562 32.273438 1.089844 33.046875 1.769531 C 33.273438 1.996094 33.546875 2.042969 33.820312 1.90625 C 34.089844 1.816406 34.273438 1.589844 34.273438 1.226562 L 34.273438 -8.898438 C 34.273438 -9.167969 34.136719 -9.398438 33.863281 -9.53125 C 33.589844 -9.625 33.320312 -9.578125 33.136719 -9.398438 C 32.320312 -8.625 31.367188 -8.261719 30.277344 -8.261719 L 16.933594 -8.261719 C 16.613281 -8.261719 16.339844 -8.351562 16.113281 -8.578125 C 15.886719 -8.761719 15.796875 -9.035156 15.796875 -9.398438 L 15.796875 -16.207031 C 15.796875 -16.523438 15.886719 -16.796875 16.113281 -17.023438 C 16.339844 -17.203125 16.613281 -17.339844 16.933594 -17.339844 L 20.925781 -17.339844 C 22.015625 -17.339844 22.96875 -16.933594 23.785156 -16.207031 C 24.011719 -16.023438 24.242188 -16.023438 24.511719 -16.160156 C 24.785156 -16.296875 24.921875 -16.523438 24.921875 -16.796875 L 24.921875 -26.875 C 24.921875 -27.144531 24.785156 -27.328125 24.511719 -27.464844 C 24.242188 -27.597656 24.011719 -27.597656 23.785156 -27.464844 C 22.96875 -26.691406 22.015625 -26.328125 20.925781 -26.328125 L 16.933594 -26.328125 C 16.613281 -26.328125 16.339844 -26.417969 16.113281 -26.644531 C 15.886719 -26.828125 15.796875 -27.101562 15.796875 -27.464844 L 15.796875 -34.273438 C 15.796875 -34.589844 15.886719 -34.863281 16.113281 -35.089844 C 16.339844 -35.269531 16.613281 -35.40625 16.933594 -35.40625 L 30.277344 -35.40625 C 31.367188 -35.40625 32.320312 -35 33.136719 -34.273438 C 33.320312 -34.046875 33.589844 -34 33.863281 -34.136719 C 34.136719 -34.226562 34.273438 -34.453125 34.273438 -34.773438 L 34.273438 -44.941406 C 34.273438 -45.210938 34.089844 -45.4375 33.820312 -45.574219 C 33.546875 -45.667969 33.273438 -45.621094 33.046875 -45.4375 Z M 33.046875 -45.4375" transform="translate(331.134 153.304)"/></g></g></g><g fill="#FFF"><g><g><path d="M 31.1875 -47.390625 C 30.414062 -46.664062 29.507812 -46.347656 28.507812 -46.347656 L 24.058594 -46.347656 C 20.746094 -46.347656 17.75 -45.710938 15.023438 -44.484375 C 12.300781 -43.261719 9.988281 -41.445312 7.988281 -39.085938 C 6.265625 -36.996094 4.949219 -34.679688 4.039062 -32.046875 C 3.132812 -29.414062 2.722656 -26.691406 2.722656 -23.785156 C 2.722656 -20.972656 3.175781 -18.203125 4.085938 -15.523438 C 4.992188 -12.800781 6.308594 -10.394531 8.125 -8.308594 C 9.941406 -6.171875 12.164062 -4.449219 14.796875 -3.175781 C 17.429688 -1.859375 20.519531 -1.226562 24.058594 -1.226562 L 28.507812 -1.226562 C 29.507812 -1.226562 30.414062 -0.863281 31.1875 -0.179688 C 31.414062 0.046875 31.683594 0.0898438 31.957031 -0.046875 C 32.230469 -0.136719 32.367188 -0.363281 32.367188 -0.726562 L 32.367188 -10.847656 C 32.367188 -11.121094 32.230469 -11.347656 31.957031 -11.484375 C 31.683594 -11.574219 31.457031 -11.53125 31.277344 -11.347656 C 30.414062 -10.578125 29.460938 -10.214844 28.417969 -10.214844 L 24.058594 -10.214844 C 21.609375 -10.214844 19.566406 -10.667969 17.976562 -11.621094 C 16.386719 -12.527344 15.117188 -13.707031 14.207031 -15.117188 C 13.300781 -16.476562 12.621094 -17.976562 12.257812 -19.519531 C 11.894531 -21.0625 11.710938 -22.515625 11.710938 -23.785156 C 11.710938 -25.601562 11.984375 -27.328125 12.527344 -29.007812 C 13.074219 -30.640625 13.890625 -32.09375 14.890625 -33.320312 C 17.113281 -35.996094 20.15625 -37.359375 24.058594 -37.359375 L 28.417969 -37.359375 C 29.460938 -37.359375 30.414062 -36.949219 31.277344 -36.222656 C 31.457031 -35.996094 31.683594 -35.953125 31.957031 -36.089844 C 32.230469 -36.179688 32.367188 -36.40625 32.367188 -36.722656 L 32.367188 -46.890625 C 32.367188 -47.164062 32.230469 -47.390625 31.957031 -47.527344 C 31.683594 -47.617188 31.414062 -47.574219 31.1875 -47.390625 Z M 31.1875 -47.390625" transform="translate(398.087 153.304)"/></g></g></g><g fill="#FFF"><g><g><path d="M 33.046875 -45.4375 C 32.273438 -44.714844 31.367188 -44.394531 30.367188 -44.394531 L 6.171875 -44.394531 C 5.855469 -44.394531 5.628906 -44.257812 5.539062 -43.988281 C 5.402344 -43.714844 5.402344 -43.488281 5.582031 -43.261719 L 5.71875 -43.125 C 6.445312 -42.308594 6.808594 -41.355469 6.808594 -40.265625 L 6.808594 -3.40625 C 6.808594 -2.859375 6.71875 -2.359375 6.535156 -1.859375 C 6.355469 -1.363281 6.082031 -0.90625 5.71875 -0.542969 L 5.582031 -0.410156 C 5.402344 -0.136719 5.402344 0.0898438 5.539062 0.363281 C 5.628906 0.636719 5.855469 0.726562 6.171875 0.726562 L 30.367188 0.726562 C 31.367188 0.726562 32.273438 1.089844 33.046875 1.769531 C 33.273438 1.996094 33.546875 2.042969 33.820312 1.90625 C 34.089844 1.816406 34.273438 1.589844 34.273438 1.226562 L 34.273438 -8.898438 C 34.273438 -9.167969 34.136719 -9.398438 33.863281 -9.53125 C 33.589844 -9.625 33.320312 -9.578125 33.136719 -9.398438 C 32.320312 -8.625 31.367188 -8.261719 30.277344 -8.261719 L 16.933594 -8.261719 C 16.613281 -8.261719 16.339844 -8.351562 16.113281 -8.578125 C 15.886719 -8.761719 15.796875 -9.035156 15.796875 -9.398438 L 15.796875 -16.207031 C 15.796875 -16.523438 15.886719 -16.796875 16.113281 -17.023438 C 16.339844 -17.203125 16.613281 -17.339844 16.933594 -17.339844 L 20.925781 -17.339844 C 22.015625 -17.339844 22.96875 -16.933594 23.785156 -16.207031 C 24.011719 -16.023438 24.242188 -16.023438 24.511719 -16.160156 C 24.785156 -16.296875 24.921875 -16.523438 24.921875 -16.796875 L 24.921875 -26.875 C 24.921875 -27.144531 24.785156 -27.328125 24.511719 -27.464844 C 24.242188 -27.597656 24.011719 -27.597656 23.785156 -27.464844 C 22.96875 -26.691406 22.015625 -26.328125 20.925781 -26.328125 L 16.933594 -26.328125 C 16.613281 -26.328125 16.339844 -26.417969 16.113281 -26.644531 C 15.886719 -26.828125 15.796875 -27.101562 15.796875 -27.464844 L 15.796875 -34.273438 C 15.796875 -34.589844 15.886719 -34.863281 16.113281 -35.089844 C 16.339844 -35.269531 16.613281 -35.40625 16.933594 -35.40625 L 30.277344 -35.40625 C 31.367188 -35.40625 32.320312 -35 33.136719 -34.273438 C 33.320312 -34.046875 33.589844 -34 33.863281 -34.136719 C 34.136719 -34.226562 34.273438 -34.453125 34.273438 -34.773438 L 34.273438 -44.941406 C 34.273438 -45.210938 34.089844 -45.4375 33.820312 -45.574219 C 33.546875 -45.667969 33.273438 -45.621094 33.046875 -45.4375 Z M 33.046875 -45.4375" transform="translate(435.943 153.304)"/></g></g></g><g fill="#FFF"><g><g><path d="M 37.132812 -1.136719 L 36.453125 -1.679688 C 35.726562 -2.269531 35.089844 -2.996094 34.589844 -3.8125 L 28.960938 -12.800781 C 28.78125 -13.074219 28.6875 -13.390625 28.78125 -13.753906 C 28.871094 -14.070312 29.050781 -14.34375 29.371094 -14.570312 C 30.503906 -15.386719 31.503906 -16.296875 32.320312 -17.339844 C 33.546875 -18.839844 34.5 -20.5625 35.136719 -22.46875 C 35.769531 -24.375 36.132812 -26.375 36.132812 -28.460938 C 36.132812 -30.550781 35.769531 -32.59375 35.136719 -34.5 C 34.5 -36.40625 33.546875 -38.128906 32.320312 -39.675781 C 30.867188 -41.398438 29.097656 -42.761719 27.101562 -43.714844 C 25.058594 -44.621094 22.832031 -45.121094 20.472656 -45.121094 L 6.128906 -45.121094 C 5.808594 -45.121094 5.582031 -44.984375 5.492188 -44.714844 C 5.355469 -44.441406 5.402344 -44.214844 5.628906 -43.988281 C 6.355469 -43.167969 6.765625 -42.214844 6.765625 -41.125 L 6.765625 -3.902344 C 6.765625 -2.859375 6.402344 -1.953125 5.71875 -1.179688 C 5.445312 -0.90625 5.402344 -0.679688 5.539062 -0.410156 C 5.628906 -0.136719 5.855469 0 6.21875 0 L 16.386719 0 C 16.660156 0 16.886719 -0.0898438 16.976562 -0.363281 C 17.066406 -0.636719 17.066406 -0.863281 16.886719 -1.136719 C 16.113281 -1.953125 15.75 -2.859375 15.75 -3.949219 L 15.75 -10.578125 C 15.75 -10.941406 15.84375 -11.257812 16.113281 -11.53125 C 16.386719 -11.800781 16.703125 -11.9375 17.066406 -11.9375 L 18.15625 -11.9375 C 18.613281 -11.9375 19.019531 -11.710938 19.292969 -11.304688 L 24.875 -2.316406 C 25.101562 -1.90625 25.058594 -1.542969 24.785156 -1.179688 L 24.738281 -1.136719 C 24.558594 -0.863281 24.558594 -0.636719 24.695312 -0.363281 C 24.785156 -0.0898438 25.011719 0 25.328125 0 L 36.8125 0 C 37.132812 0 37.3125 -0.136719 37.40625 -0.410156 C 37.496094 -0.679688 37.40625 -0.90625 37.132812 -1.136719 Z M 25.375 -23.058594 C 24.242188 -21.609375 22.605469 -20.925781 20.472656 -20.925781 L 17.066406 -20.925781 C 16.703125 -20.925781 16.386719 -21.015625 16.113281 -21.289062 C 15.84375 -21.5625 15.75 -21.878906 15.75 -22.242188 L 15.75 -34.773438 C 15.75 -35.136719 15.84375 -35.453125 16.113281 -35.726562 C 16.386719 -35.996094 16.703125 -36.132812 17.066406 -36.132812 L 20.472656 -36.132812 C 22.105469 -36.132812 23.332031 -35.769531 24.242188 -35.042969 C 25.148438 -34.316406 25.785156 -33.5 26.238281 -32.59375 C 26.644531 -31.683594 26.917969 -30.824219 27.007812 -30.003906 C 27.101562 -29.1875 27.144531 -28.644531 27.144531 -28.460938 C 27.144531 -27.371094 26.964844 -26.375 26.691406 -25.464844 C 26.375 -24.558594 25.917969 -23.742188 25.375 -23.058594 Z M 25.375 -23.058594" transform="translate(475.661 153.304)"/></g></g></g><g fill="#FFF"><g><g><path d="M 35.542969 -46.257812 L 35.496094 -46.210938 C 34.679688 -45.484375 33.773438 -45.121094 32.730469 -45.121094 L 9.398438 -45.121094 C 8.308594 -45.121094 7.398438 -45.484375 6.582031 -46.210938 L 6.582031 -46.257812 C 6.308594 -46.390625 6.082031 -46.390625 5.808594 -46.257812 C 5.539062 -46.121094 5.445312 -45.9375 5.445312 -45.667969 L 5.445312 -35.589844 C 5.445312 -35.269531 5.539062 -35.042969 5.808594 -34.953125 C 6.082031 -34.816406 6.308594 -34.816406 6.582031 -35 C 7.398438 -35.726562 8.308594 -36.132812 9.398438 -36.132812 L 15.660156 -36.132812 C 15.886719 -36.132812 16.113281 -36.042969 16.296875 -35.859375 C 16.476562 -35.679688 16.570312 -35.453125 16.570312 -35.226562 L 16.570312 -3.996094 C 16.570312 -2.90625 16.207031 -1.953125 15.480469 -1.179688 L 15.433594 -1.136719 C 15.253906 -0.863281 15.253906 -0.636719 15.386719 -0.363281 C 15.480469 -0.0898438 15.707031 0 16.023438 0 L 26.101562 0 C 26.375 0 26.554688 -0.0898438 26.691406 -0.363281 C 26.828125 -0.636719 26.828125 -0.863281 26.691406 -1.136719 C 25.917969 -1.953125 25.558594 -2.859375 25.558594 -3.949219 L 25.558594 -35.226562 C 25.558594 -35.453125 25.648438 -35.679688 25.828125 -35.859375 C 26.011719 -36.042969 26.191406 -36.132812 26.464844 -36.132812 L 32.730469 -36.132812 C 33.820312 -36.132812 34.726562 -35.726562 35.496094 -35 L 35.542969 -35 C 35.769531 -34.816406 35.996094 -34.816406 36.269531 -34.953125 C 36.542969 -35.042969 36.679688 -35.269531 36.679688 -35.589844 L 36.679688 -45.667969 C 36.679688 -45.9375 36.542969 -46.121094 36.269531 -46.257812 C 35.996094 -46.390625 35.769531 -46.390625 35.542969 -46.257812 Z M 35.542969 -46.257812" transform="translate(518.556 153.304)"/></g></g></g><g fill="#FFF"><g><g><path d="M 15.707031 -3.996094 L 15.707031 -41.125 C 15.707031 -42.214844 16.070312 -43.167969 16.796875 -43.988281 C 16.933594 -44.214844 16.933594 -44.441406 16.839844 -44.714844 C 16.703125 -44.984375 16.476562 -45.121094 16.207031 -45.121094 L 6.171875 -45.121094 C 5.855469 -45.121094 5.628906 -44.984375 5.539062 -44.714844 C 5.402344 -44.441406 5.402344 -44.214844 5.582031 -43.988281 C 6.308594 -43.167969 6.71875 -42.214844 6.71875 -41.125 L 6.71875 -3.996094 C 6.71875 -2.90625 6.308594 -1.953125 5.582031 -1.136719 C 5.402344 -0.863281 5.402344 -0.636719 5.539062 -0.363281 C 5.628906 -0.0898438 5.855469 0 6.171875 0 L 16.207031 0 C 16.476562 0 16.703125 -0.0898438 16.839844 -0.363281 C 16.933594 -0.636719 16.933594 -0.863281 16.796875 -1.136719 C 16.433594 -1.496094 16.160156 -1.953125 15.980469 -2.453125 C 15.796875 -2.949219 15.707031 -3.449219 15.707031 -3.996094 Z M 15.707031 -3.996094" transform="translate(560.68 153.304)"/></g></g></g><g fill="#FFF"><g><g><path d="M 33 -46.210938 C 32.183594 -45.484375 31.277344 -45.121094 30.1875 -45.121094 L 6.171875 -45.121094 C 5.855469 -45.121094 5.628906 -44.984375 5.539062 -44.714844 C 5.402344 -44.441406 5.402344 -44.214844 5.582031 -43.988281 L 5.628906 -43.941406 C 6.355469 -43.125 6.71875 -42.171875 6.71875 -41.125 L 6.71875 -3.949219 C 6.71875 -2.859375 6.355469 -1.953125 5.628906 -1.136719 L 5.582031 -1.089844 C 5.402344 -0.816406 5.402344 -0.589844 5.539062 -0.363281 C 5.628906 -0.0898438 5.855469 0 6.171875 0 L 16.207031 0 C 16.476562 0 16.703125 -0.0898438 16.839844 -0.363281 C 16.933594 -0.589844 16.933594 -0.816406 16.796875 -1.089844 C 16.070312 -1.90625 15.707031 -2.8125 15.707031 -3.902344 L 15.707031 -17.113281 C 15.707031 -17.339844 15.796875 -17.566406 15.980469 -17.75 C 16.160156 -17.929688 16.386719 -18.066406 16.660156 -18.066406 L 20.882812 -18.066406 C 21.96875 -18.066406 22.878906 -17.65625 23.648438 -16.933594 L 23.695312 -16.933594 C 23.921875 -16.75 24.148438 -16.75 24.421875 -16.886719 C 24.695312 -16.976562 24.832031 -17.203125 24.832031 -17.523438 L 24.832031 -27.554688 C 24.832031 -27.828125 24.695312 -28.054688 24.421875 -28.191406 C 24.148438 -28.324219 23.921875 -28.324219 23.695312 -28.144531 C 22.878906 -27.417969 21.96875 -27.054688 20.882812 -27.054688 L 16.660156 -27.054688 C 16.386719 -27.054688 16.160156 -27.144531 15.980469 -27.328125 C 15.796875 -27.507812 15.707031 -27.734375 15.707031 -28.007812 L 15.707031 -35.136719 C 15.707031 -35.40625 15.796875 -35.632812 15.980469 -35.816406 C 16.160156 -35.996094 16.386719 -36.089844 16.660156 -36.089844 L 30.1875 -36.089844 C 31.277344 -36.089844 32.183594 -35.726562 33 -35 C 33.226562 -34.816406 33.457031 -34.816406 33.726562 -34.953125 C 34 -35.042969 34.136719 -35.269531 34.136719 -35.589844 L 34.136719 -45.621094 C 34.136719 -45.894531 34 -46.121094 33.726562 -46.257812 C 33.457031 -46.347656 33.226562 -46.347656 33 -46.210938 Z M 33 -46.210938" transform="translate(583.103 153.304)"/></g></g></g><g fill="#FFF"><g><g><path d="M 15.707031 -3.996094 L 15.707031 -41.125 C 15.707031 -42.214844 16.070312 -43.167969 16.796875 -43.988281 C 16.933594 -44.214844 16.933594 -44.441406 16.839844 -44.714844 C 16.703125 -44.984375 16.476562 -45.121094 16.207031 -45.121094 L 6.171875 -45.121094 C 5.855469 -45.121094 5.628906 -44.984375 5.539062 -44.714844 C 5.402344 -44.441406 5.402344 -44.214844 5.582031 -43.988281 C 6.308594 -43.167969 6.71875 -42.214844 6.71875 -41.125 L 6.71875 -3.996094 C 6.71875 -2.90625 6.308594 -1.953125 5.582031 -1.136719 C 5.402344 -0.863281 5.402344 -0.636719 5.539062 -0.363281 C 5.628906 -0.0898438 5.855469 0 6.171875 0 L 16.207031 0 C 16.476562 0 16.703125 -0.0898438 16.839844 -0.363281 C 16.933594 -0.636719 16.933594 -0.863281 16.796875 -1.136719 C 16.433594 -1.496094 16.160156 -1.953125 15.980469 -2.453125 C 15.796875 -2.949219 15.707031 -3.449219 15.707031 -3.996094 Z M 15.707031 -3.996094" transform="translate(620.007 153.304)"/></g></g></g><g fill="#FFF"><g><g><path d="M 31.1875 -47.390625 C 30.414062 -46.664062 29.507812 -46.347656 28.507812 -46.347656 L 24.058594 -46.347656 C 20.746094 -46.347656 17.75 -45.710938 15.023438 -44.484375 C 12.300781 -43.261719 9.988281 -41.445312 7.988281 -39.085938 C 6.265625 -36.996094 4.949219 -34.679688 4.039062 -32.046875 C 3.132812 -29.414062 2.722656 -26.691406 2.722656 -23.785156 C 2.722656 -20.972656 3.175781 -18.203125 4.085938 -15.523438 C 4.992188 -12.800781 6.308594 -10.394531 8.125 -8.308594 C 9.941406 -6.171875 12.164062 -4.449219 14.796875 -3.175781 C 17.429688 -1.859375 20.519531 -1.226562 24.058594 -1.226562 L 28.507812 -1.226562 C 29.507812 -1.226562 30.414062 -0.863281 31.1875 -0.179688 C 31.414062 0.046875 31.683594 0.0898438 31.957031 -0.046875 C 32.230469 -0.136719 32.367188 -0.363281 32.367188 -0.726562 L 32.367188 -10.847656 C 32.367188 -11.121094 32.230469 -11.347656 31.957031 -11.484375 C 31.683594 -11.574219 31.457031 -11.53125 31.277344 -11.347656 C 30.414062 -10.578125 29.460938 -10.214844 28.417969 -10.214844 L 24.058594 -10.214844 C 21.609375 -10.214844 19.566406 -10.667969 17.976562 -11.621094 C 16.386719 -12.527344 15.117188 -13.707031 14.207031 -15.117188 C 13.300781 -16.476562 12.621094 -17.976562 12.257812 -19.519531 C 11.894531 -21.0625 11.710938 -22.515625 11.710938 -23.785156 C 11.710938 -25.601562 11.984375 -27.328125 12.527344 -29.007812 C 13.074219 -30.640625 13.890625 -32.09375 14.890625 -33.320312 C 17.113281 -35.996094 20.15625 -37.359375 24.058594 -37.359375 L 28.417969 -37.359375 C 29.460938 -37.359375 30.414062 -36.949219 31.277344 -36.222656 C 31.457031 -35.996094 31.683594 -35.953125 31.957031 -36.089844 C 32.230469 -36.179688 32.367188 -36.40625 32.367188 -36.722656 L 32.367188 -46.890625 C 32.367188 -47.164062 32.230469 -47.390625 31.957031 -47.527344 C 31.683594 -47.617188 31.414062 -47.574219 31.1875 -47.390625 Z M 31.1875 -47.390625" transform="translate(642.43 153.304)"/></g></g></g><g fill="#FFF"><g><g><path d="M 41.308594 -0.816406 C 41.308594 -1 41.21875 -1.136719 41.082031 -1.226562 C 40.039062 -2.089844 39.355469 -3.175781 38.992188 -4.539062 L 28.144531 -42.035156 C 27.917969 -42.761719 28.054688 -43.441406 28.597656 -43.988281 C 28.734375 -44.214844 28.734375 -44.441406 28.644531 -44.714844 C 28.507812 -44.984375 28.28125 -45.121094 28.007812 -45.121094 L 16.023438 -45.121094 C 15.75 -45.121094 15.523438 -44.984375 15.386719 -44.714844 C 15.253906 -44.441406 15.253906 -44.214844 15.433594 -43.988281 C 15.980469 -43.441406 16.113281 -42.761719 15.886719 -42.035156 L 5.085938 -4.492188 C 4.722656 -3.222656 3.996094 -2.132812 2.949219 -1.226562 C 2.8125 -1.089844 2.722656 -0.953125 2.722656 -0.816406 C 2.679688 -0.589844 2.722656 -0.410156 2.859375 -0.226562 C 2.996094 -0.046875 3.175781 0 3.449219 0 L 13.980469 0 C 14.253906 0 14.480469 -0.0898438 14.570312 -0.363281 C 14.664062 -0.636719 14.664062 -0.863281 14.480469 -1.089844 C 13.9375 -1.632812 13.800781 -2.316406 13.980469 -3.042969 L 15.386719 -7.761719 C 15.523438 -8.261719 15.796875 -8.671875 16.207031 -8.941406 C 16.570312 -9.214844 17.023438 -9.398438 17.566406 -9.398438 L 26.511719 -9.398438 C 27.007812 -9.398438 27.464844 -9.214844 27.871094 -8.941406 C 28.234375 -8.671875 28.507812 -8.261719 28.6875 -7.761719 L 30.050781 -3.042969 C 30.230469 -2.316406 30.050781 -1.679688 29.597656 -1.136719 L 29.597656 -1.089844 C 29.414062 -0.816406 29.414062 -0.589844 29.550781 -0.363281 C 29.640625 -0.0898438 29.867188 0 30.1875 0 L 40.628906 0 C 40.855469 0 41.035156 -0.046875 41.171875 -0.226562 C 41.308594 -0.410156 41.355469 -0.589844 41.308594 -0.816406 Z M 24.964844 -18.382812 L 19.109375 -18.382812 C 18.929688 -18.382812 18.792969 -18.429688 18.703125 -18.566406 C 18.566406 -18.703125 18.519531 -18.882812 18.613281 -19.066406 L 21.5625 -29.1875 C 21.609375 -29.414062 21.742188 -29.550781 22.015625 -29.550781 C 22.289062 -29.550781 22.425781 -29.414062 22.515625 -29.1875 L 25.421875 -19.066406 C 25.464844 -18.882812 25.421875 -18.703125 25.328125 -18.566406 C 25.238281 -18.429688 25.101562 -18.382812 24.964844 -18.382812 Z M 24.964844 -18.382812" transform="translate(680.287 153.304)"/></g></g></g><g fill="#FFF"><g><g><path d="M 35.542969 -46.257812 L 35.496094 -46.210938 C 34.679688 -45.484375 33.773438 -45.121094 32.730469 -45.121094 L 9.398438 -45.121094 C 8.308594 -45.121094 7.398438 -45.484375 6.582031 -46.210938 L 6.582031 -46.257812 C 6.308594 -46.390625 6.082031 -46.390625 5.808594 -46.257812 C 5.539062 -46.121094 5.445312 -45.9375 5.445312 -45.667969 L 5.445312 -35.589844 C 5.445312 -35.269531 5.539062 -35.042969 5.808594 -34.953125 C 6.082031 -34.816406 6.308594 -34.816406 6.582031 -35 C 7.398438 -35.726562 8.308594 -36.132812 9.398438 -36.132812 L 15.660156 -36.132812 C 15.886719 -36.132812 16.113281 -36.042969 16.296875 -35.859375 C 16.476562 -35.679688 16.570312 -35.453125 16.570312 -35.226562 L 16.570312 -3.996094 C 16.570312 -2.90625 16.207031 -1.953125 15.480469 -1.179688 L 15.433594 -1.136719 C 15.253906 -0.863281 15.253906 -0.636719 15.386719 -0.363281 C 15.480469 -0.0898438 15.707031 0 16.023438 0 L 26.101562 0 C 26.375 0 26.554688 -0.0898438 26.691406 -0.363281 C 26.828125 -0.636719 26.828125 -0.863281 26.691406 -1.136719 C 25.917969 -1.953125 25.558594 -2.859375 25.558594 -3.949219 L 25.558594 -35.226562 C 25.558594 -35.453125 25.648438 -35.679688 25.828125 -35.859375 C 26.011719 -36.042969 26.191406 -36.132812 26.464844 -36.132812 L 32.730469 -36.132812 C 33.820312 -36.132812 34.726562 -35.726562 35.496094 -35 L 35.542969 -35 C 35.769531 -34.816406 35.996094 -34.816406 36.269531 -34.953125 C 36.542969 -35.042969 36.679688 -35.269531 36.679688 -35.589844 L 36.679688 -45.667969 C 36.679688 -45.9375 36.542969 -46.121094 36.269531 -46.257812 C 35.996094 -46.390625 35.769531 -46.390625 35.542969 -46.257812 Z M 35.542969 -46.257812" transform="translate(724.362 153.304)"/></g></g></g><g fill="#FFF"><g><g><path d="M 33.046875 -45.4375 C 32.273438 -44.714844 31.367188 -44.394531 30.367188 -44.394531 L 6.171875 -44.394531 C 5.855469 -44.394531 5.628906 -44.257812 5.539062 -43.988281 C 5.402344 -43.714844 5.402344 -43.488281 5.582031 -43.261719 L 5.71875 -43.125 C 6.445312 -42.308594 6.808594 -41.355469 6.808594 -40.265625 L 6.808594 -3.40625 C 6.808594 -2.859375 6.71875 -2.359375 6.535156 -1.859375 C 6.355469 -1.363281 6.082031 -0.90625 5.71875 -0.542969 L 5.582031 -0.410156 C 5.402344 -0.136719 5.402344 0.0898438 5.539062 0.363281 C 5.628906 0.636719 5.855469 0.726562 6.171875 0.726562 L 30.367188 0.726562 C 31.367188 0.726562 32.273438 1.089844 33.046875 1.769531 C 33.273438 1.996094 33.546875 2.042969 33.820312 1.90625 C 34.089844 1.816406 34.273438 1.589844 34.273438 1.226562 L 34.273438 -8.898438 C 34.273438 -9.167969 34.136719 -9.398438 33.863281 -9.53125 C 33.589844 -9.625 33.320312 -9.578125 33.136719 -9.398438 C 32.320312 -8.625 31.367188 -8.261719 30.277344 -8.261719 L 16.933594 -8.261719 C 16.613281 -8.261719 16.339844 -8.351562 16.113281 -8.578125 C 15.886719 -8.761719 15.796875 -9.035156 15.796875 -9.398438 L 15.796875 -16.207031 C 15.796875 -16.523438 15.886719 -16.796875 16.113281 -17.023438 C 16.339844 -17.203125 16.613281 -17.339844 16.933594 -17.339844 L 20.925781 -17.339844 C 22.015625 -17.339844 22.96875 -16.933594 23.785156 -16.207031 C 24.011719 -16.023438 24.242188 -16.023438 24.511719 -16.160156 C 24.785156 -16.296875 24.921875 -16.523438 24.921875 -16.796875 L 24.921875 -26.875 C 24.921875 -27.144531 24.785156 -27.328125 24.511719 -27.464844 C 24.242188 -27.597656 24.011719 -27.597656 23.785156 -27.464844 C 22.96875 -26.691406 22.015625 -26.328125 20.925781 -26.328125 L 16.933594 -26.328125 C 16.613281 -26.328125 16.339844 -26.417969 16.113281 -26.644531 C 15.886719 -26.828125 15.796875 -27.101562 15.796875 -27.464844 L 15.796875 -34.273438 C 15.796875 -34.589844 15.886719 -34.863281 16.113281 -35.089844 C 16.339844 -35.269531 16.613281 -35.40625 16.933594 -35.40625 L 30.277344 -35.40625 C 31.367188 -35.40625 32.320312 -35 33.136719 -34.273438 C 33.320312 -34.046875 33.589844 -34 33.863281 -34.136719 C 34.136719 -34.226562 34.273438 -34.453125 34.273438 -34.773438 L 34.273438 -44.941406 C 34.273438 -45.210938 34.089844 -45.4375 33.820312 -45.574219 C 33.546875 -45.667969 33.273438 -45.621094 33.046875 -45.4375 Z M 33.046875 -45.4375" transform="translate(766.486 153.304)"/></g></g></g></svg>